<svg xmlns="http://www.w3.org/2000/svg" width="1320" height="1320" viewBox="0 0 1320 1320" role="img" aria-labelledby="title desc"><title id="title">NanoLLM — Sparse MoE Feed-Forward</title><desc id="desc">python/model.py · MoEFeedForward · token-level routing in the transformer FFN slot</desc><defs><marker id="a" markerWidth="7" markerHeight="7" refX="6" refY="3.5" orient="auto"><path d="M0 0L7 3.5L0 7Z" fill="#2d4f8b"/></marker></defs><style>text{font-family:Arial,Helvetica,sans-serif;fill:#163153}.title{font-size:30px;font-weight:bold}.sub{font-size:16px;fill:#53627d}.head{font-size:19px;font-weight:bold}.body{font-size:16px}.small{font-size:14px;fill:#53627d}.edge{fill:none;stroke:#2d4f8b;stroke-width:2.5;marker-end:url(#a)}.dash{stroke-dasharray:6 5}</style><rect width="1320" height="1320" fill="#f5f8fc"/>
<text x="660" y="55" class="title" text-anchor="middle">NanoLLM — Sparse MoE Feed-Forward</text>
<text x="660" y="85" class="sub" text-anchor="middle">python/model.py · MoEFeedForward · token-level routing in the transformer FFN slot</text>
<rect x="60" y="120" width="1200" height="118" rx="20" fill="white" stroke="#ced8e8" stroke-width="2"/>
<text x="84" y="153" class="head" text-anchor="start">Inside a pre-norm transformer block</text>
<text x="660" y="189" class="body" text-anchor="middle">Residual stream → LayerNorm → MoE FFN → residual add → output [B·T, D]</text>
<rect x="70" y="290" width="280" height="92" rx="14" fill="#ffffff" stroke="#8ea0bf" stroke-width="2"/>
<text x="210.0" y="321" class="head" text-anchor="middle">Normalized token state</text>
<text x="210.0" y="348" class="body" text-anchor="middle">x [B·T, D]</text>
<rect x="395" y="290" width="270" height="92" rx="14" fill="#eef5ff" stroke="#6b8fcf" stroke-width="2"/>
<text x="530.0" y="321" class="head" text-anchor="middle">Router</text>
<text x="530.0" y="348" class="body" text-anchor="middle">Linear(D → E, bias=False)</text>
<rect x="710" y="290" width="270" height="92" rx="14" fill="#eefbf8" stroke="#53a79b" stroke-width="2"/>
<text x="845.0" y="321" class="head" text-anchor="middle">Top-k selection</text>
<text x="845.0" y="348" class="body" text-anchor="middle">Router logits [B·T, E]</text>
<path d="M350 336H395" class="edge"/>
<path d="M665 336H710" class="edge"/>
<text x="1030" y="322" class="small" text-anchor="start">Cardputer: E=4</text>
<text x="1030" y="349" class="small" text-anchor="start">top_k=1</text>
<text x="100" y="413" class="body" text-anchor="start">Routed experts: dense feed-forward networks</text>
<text x="100" y="436" class="small" text-anchor="start">Linear(D → d_ff) → GELU → Linear(d_ff → D)</text>
<rect x="100" y="480" width="250" height="104" rx="14" fill="#f2fbf1" stroke="#70a95e" stroke-width="2"/>
<text x="225.0" y="511" class="head" text-anchor="middle">Expert 0</text>
<text x="225.0" y="538" class="body" text-anchor="middle">FFN(D, d_ff)</text>
<text x="225.0" y="562" class="body" text-anchor="middle">Runs only when selected</text>
<path d="M225 450V480" class="edge"/>
<path d="M225 584V650" class="edge"/>
<rect x="390" y="480" width="250" height="104" rx="14" fill="#f2fbf1" stroke="#70a95e" stroke-width="2"/>
<text x="515.0" y="511" class="head" text-anchor="middle">Expert 1</text>
<text x="515.0" y="538" class="body" text-anchor="middle">FFN(D, d_ff)</text>
<text x="515.0" y="562" class="body" text-anchor="middle">Runs only when selected</text>
<path d="M515 450V480" class="edge"/>
<path d="M515 584V650" class="edge"/>
<rect x="680" y="480" width="250" height="104" rx="14" fill="#f2fbf1" stroke="#70a95e" stroke-width="2"/>
<text x="805.0" y="511" class="head" text-anchor="middle">Expert 2</text>
<text x="805.0" y="538" class="body" text-anchor="middle">FFN(D, d_ff)</text>
<text x="805.0" y="562" class="body" text-anchor="middle">Runs only when selected</text>
<path d="M805 450V480" class="edge"/>
<path d="M805 584V650" class="edge"/>
<rect x="970" y="480" width="250" height="104" rx="14" fill="#f2fbf1" stroke="#70a95e" stroke-width="2"/>
<text x="1095.0" y="511" class="head" text-anchor="middle">Expert 3</text>
<text x="1095.0" y="538" class="body" text-anchor="middle">FFN(D, d_ff)</text>
<text x="1095.0" y="562" class="body" text-anchor="middle">Runs only when selected</text>
<path d="M1095 450V480" class="edge"/>
<path d="M1095 584V650" class="edge"/>
<path d="M845 382V450H225" class="edge"/>
<path d="M225 450H1095" fill="none" stroke="#2d4f8b" stroke-width="2.5"/>
<rect x="100" y="650" width="1120" height="92" rx="14" fill="#ffffff" stroke="#8ea0bf" stroke-width="2"/>
<text x="660.0" y="681" class="head" text-anchor="middle">Gated combine</text>
<text x="660.0" y="708" class="body" text-anchor="middle">out = Σ gate_i · Expert_i(x); gates = softmax over selected logits</text>
<path d="M980 358H1240V696H1220" class="edge dash"/>
<text x="1228" y="630" class="small" text-anchor="end">Gate weights</text>
<rect x="100" y="804" width="430" height="108" rx="14" fill="#fff8ec" stroke="#d9a441" stroke-width="2"/>
<text x="315.0" y="835" class="head" text-anchor="middle">Shared expert</text>
<text x="315.0" y="862" class="body" text-anchor="middle">FFN(D, shared_d_ff) — always active</text>
<text x="315.0" y="886" class="body" text-anchor="middle">Original diagram config: shared_d_ff = 64</text>
<path d="M210 382H40V858H100" class="edge dash"/>
<circle cx="660" cy="858" r="18" fill="white" stroke="#2d4f8b" stroke-width="2"/>
<text x="660" y="865" class="head" text-anchor="middle">+</text>
<path d="M660 742V840" class="edge"/>
<path d="M530 858H642" class="edge"/>
<rect x="790" y="814" width="430" height="88" rx="14" fill="#ffffff" stroke="#8ea0bf" stroke-width="2"/>
<text x="1005.0" y="845" class="head" text-anchor="middle">MoE output</text>
<text x="1005.0" y="872" class="body" text-anchor="middle">[B·T, D] → transformer residual add</text>
<path d="M678 858H790" class="edge"/>
<rect x="60" y="958" width="1200" height="314" rx="20" fill="white" stroke="#ced8e8" stroke-width="2"/>
<text x="84" y="991" class="head" text-anchor="start">Storage, compute &amp; working memory</text>
<text x="84" y="1026" class="body" text-anchor="start">• Stored FFN capacity: E × d_ff + shared_d_ff; active work: top_k experts + shared expert.</text>
<text x="84" y="1058" class="body" text-anchor="start">• All expert weights remain in flash (PROGMEM int8); selected weights are read during matmul.</text>
<text x="84" y="1090" class="body" text-anchor="start">• The ESP32 runtime reuses an expert activation workspace instead of holding every expert’s activations.</text>
<text x="84" y="1122" class="body" text-anchor="start">• Top-1 uses argmax; top_k &gt; 1 uses top-k selection and softmax gates over selected logits.</text>
<text x="84" y="1154" class="small" text-anchor="start">• Original diagram configuration: E=4, top_k=1, shared_d_ff=64, d_ff=128, D=32, 124 layers, context=512.</text>
<text x="84" y="1186" class="small" text-anchor="start">  Original estimates: ~5.6M parameters, ~5.5 MiB int8 weights, ~1.6× dense FFN per-token cost.</text>
<text x="84" y="1218" class="small" text-anchor="start">Reference: scripts/moe_tradeoff_estimator.py and MOE_CARDPUTER_RESEARCH.md</text>
</svg>